<mxfile host="app.diagrams.net" modified="2021-07-29T04:00:01.049Z" agent="5.0 (Macintosh; Intel Mac OS X 10_15_7) AppleWebKit/537.36 (KHTML, like Gecko) Chrome/91.0.4472.114 Safari/537.36" etag="Xl6ZBleyManQn_Gb7BVU" version="14.9.3" type="github">
  <diagram id="amQAH87YjU0Ru2cIybjM" name="Page-1">
    <mxGraphModel dx="1111" dy="740" grid="1" gridSize="10" guides="1" tooltips="1" connect="1" arrows="1" fold="1" page="1" pageScale="1" pageWidth="850" pageHeight="1100" math="0" shadow="0">
      <root>
        <mxCell id="0" />
        <mxCell id="1" parent="0" />
        <mxCell id="Nv5pJQe_Et3Vec8wv5z1-6" value="MPPay BFF Service" style="swimlane;horizontal=0;fillColor=#ffe6cc;strokeColor=#d79b00;" vertex="1" parent="1">
          <mxGeometry x="130" y="210" width="530" height="680" as="geometry" />
        </mxCell>
        <mxCell id="Nv5pJQe_Et3Vec8wv5z1-7" value="Processor Layer" style="swimlane;horizontal=0;fillColor=#dae8fc;strokeColor=#6c8ebf;" vertex="1" parent="Nv5pJQe_Et3Vec8wv5z1-6">
          <mxGeometry x="30" y="20" width="490" height="130" as="geometry" />
        </mxCell>
        <mxCell id="Nv5pJQe_Et3Vec8wv5z1-10" value="channel dict" style="rounded=0;whiteSpace=wrap;html=1;fillColor=#dae8fc;strokeColor=#6c8ebf;" vertex="1" parent="Nv5pJQe_Et3Vec8wv5z1-7">
          <mxGeometry x="50" y="10" width="110" height="40" as="geometry" />
        </mxCell>
        <mxCell id="Nv5pJQe_Et3Vec8wv5z1-11" value="white list" style="rounded=0;whiteSpace=wrap;html=1;fillColor=#dae8fc;strokeColor=#6c8ebf;" vertex="1" parent="Nv5pJQe_Et3Vec8wv5z1-7">
          <mxGeometry x="200" y="10" width="110" height="40" as="geometry" />
        </mxCell>
        <mxCell id="Nv5pJQe_Et3Vec8wv5z1-12" value="black list" style="rounded=0;whiteSpace=wrap;html=1;fillColor=#dae8fc;strokeColor=#6c8ebf;" vertex="1" parent="Nv5pJQe_Et3Vec8wv5z1-7">
          <mxGeometry x="340" y="10" width="110" height="40" as="geometry" />
        </mxCell>
        <mxCell id="Nv5pJQe_Et3Vec8wv5z1-13" value="batch import" style="rounded=0;whiteSpace=wrap;html=1;fillColor=#dae8fc;strokeColor=#6c8ebf;" vertex="1" parent="Nv5pJQe_Et3Vec8wv5z1-7">
          <mxGeometry x="50" y="80" width="110" height="40" as="geometry" />
        </mxCell>
        <mxCell id="Nv5pJQe_Et3Vec8wv5z1-14" value="batch remove" style="rounded=0;whiteSpace=wrap;html=1;fillColor=#dae8fc;strokeColor=#6c8ebf;" vertex="1" parent="Nv5pJQe_Et3Vec8wv5z1-7">
          <mxGeometry x="200" y="80" width="110" height="40" as="geometry" />
        </mxCell>
        <mxCell id="Nv5pJQe_Et3Vec8wv5z1-15" value="..." style="rounded=0;whiteSpace=wrap;html=1;fillColor=#dae8fc;strokeColor=#6c8ebf;" vertex="1" parent="Nv5pJQe_Et3Vec8wv5z1-7">
          <mxGeometry x="340" y="80" width="110" height="40" as="geometry" />
        </mxCell>
        <mxCell id="Nv5pJQe_Et3Vec8wv5z1-8" value="Business Layer" style="swimlane;horizontal=0;fillColor=#d5e8d4;strokeColor=#82b366;" vertex="1" parent="Nv5pJQe_Et3Vec8wv5z1-6">
          <mxGeometry x="30" y="170" width="490" height="140" as="geometry" />
        </mxCell>
        <mxCell id="Nv5pJQe_Et3Vec8wv5z1-16" value="account module" style="rounded=0;whiteSpace=wrap;html=1;fillColor=#d5e8d4;strokeColor=#82b366;" vertex="1" parent="Nv5pJQe_Et3Vec8wv5z1-8">
          <mxGeometry x="50" y="10" width="110" height="40" as="geometry" />
        </mxCell>
        <mxCell id="Nv5pJQe_Et3Vec8wv5z1-17" value="channel module" style="rounded=0;whiteSpace=wrap;html=1;fillColor=#d5e8d4;strokeColor=#82b366;" vertex="1" parent="Nv5pJQe_Et3Vec8wv5z1-8">
          <mxGeometry x="200" y="10" width="110" height="40" as="geometry" />
        </mxCell>
        <mxCell id="Nv5pJQe_Et3Vec8wv5z1-18" value="white list module" style="rounded=0;whiteSpace=wrap;html=1;fillColor=#d5e8d4;strokeColor=#82b366;" vertex="1" parent="Nv5pJQe_Et3Vec8wv5z1-8">
          <mxGeometry x="340" y="10" width="110" height="40" as="geometry" />
        </mxCell>
        <mxCell id="Nv5pJQe_Et3Vec8wv5z1-19" value="black list module" style="rounded=0;whiteSpace=wrap;html=1;fillColor=#d5e8d4;strokeColor=#82b366;" vertex="1" parent="Nv5pJQe_Et3Vec8wv5z1-8">
          <mxGeometry x="50" y="80" width="110" height="40" as="geometry" />
        </mxCell>
        <mxCell id="Nv5pJQe_Et3Vec8wv5z1-20" value="file import module" style="rounded=0;whiteSpace=wrap;html=1;fillColor=#d5e8d4;strokeColor=#82b366;" vertex="1" parent="Nv5pJQe_Et3Vec8wv5z1-8">
          <mxGeometry x="200" y="80" width="110" height="40" as="geometry" />
        </mxCell>
        <mxCell id="Nv5pJQe_Et3Vec8wv5z1-21" value="..." style="rounded=0;whiteSpace=wrap;html=1;fillColor=#d5e8d4;strokeColor=#82b366;" vertex="1" parent="Nv5pJQe_Et3Vec8wv5z1-8">
          <mxGeometry x="340" y="80" width="110" height="40" as="geometry" />
        </mxCell>
        <mxCell id="Nv5pJQe_Et3Vec8wv5z1-9" value="Data Accessor" style="swimlane;horizontal=0;fillColor=#f8cecc;strokeColor=#b85450;" vertex="1" parent="Nv5pJQe_Et3Vec8wv5z1-6">
          <mxGeometry x="30" y="330" width="490" height="140" as="geometry" />
        </mxCell>
        <mxCell id="Nv5pJQe_Et3Vec8wv5z1-22" value="shop info" style="rounded=0;whiteSpace=wrap;html=1;fillColor=#f8cecc;strokeColor=#b85450;" vertex="1" parent="Nv5pJQe_Et3Vec8wv5z1-9">
          <mxGeometry x="50" y="50" width="110" height="40" as="geometry" />
        </mxCell>
        <mxCell id="Nv5pJQe_Et3Vec8wv5z1-23" value="channel info" style="rounded=0;whiteSpace=wrap;html=1;fillColor=#f8cecc;strokeColor=#b85450;" vertex="1" parent="Nv5pJQe_Et3Vec8wv5z1-9">
          <mxGeometry x="200" y="50" width="110" height="40" as="geometry" />
        </mxCell>
        <mxCell id="Nv5pJQe_Et3Vec8wv5z1-24" value="white_black list" style="rounded=0;whiteSpace=wrap;html=1;fillColor=#f8cecc;strokeColor=#b85450;" vertex="1" parent="Nv5pJQe_Et3Vec8wv5z1-9">
          <mxGeometry x="340" y="50" width="110" height="40" as="geometry" />
        </mxCell>
        <mxCell id="Nv5pJQe_Et3Vec8wv5z1-25" value="Dependencies" style="swimlane;horizontal=0;" vertex="1" parent="Nv5pJQe_Et3Vec8wv5z1-6">
          <mxGeometry x="30" y="490" width="490" height="170" as="geometry" />
        </mxCell>
        <mxCell id="Nv5pJQe_Et3Vec8wv5z1-26" value="account service" style="rounded=0;whiteSpace=wrap;html=1;" vertex="1" parent="Nv5pJQe_Et3Vec8wv5z1-25">
          <mxGeometry x="40" y="50" width="120" height="60" as="geometry" />
        </mxCell>
        <mxCell id="Nv5pJQe_Et3Vec8wv5z1-27" value="channel service" style="rounded=0;whiteSpace=wrap;html=1;" vertex="1" parent="Nv5pJQe_Et3Vec8wv5z1-25">
          <mxGeometry x="195" y="50" width="120" height="60" as="geometry" />
        </mxCell>
        <mxCell id="Nv5pJQe_Et3Vec8wv5z1-28" value="seller service" style="rounded=0;whiteSpace=wrap;html=1;" vertex="1" parent="Nv5pJQe_Et3Vec8wv5z1-25">
          <mxGeometry x="350" y="50" width="120" height="60" as="geometry" />
        </mxCell>
      </root>
    </mxGraphModel>
  </diagram>
</mxfile>
